#define OpenBSDDtlogo_xbm_width 237
#define OpenBSDDtlogo_xbm_height 237
static char OpenBSDDtlogo_xbm_bits[] = {
   0x00, 0x00, 0x00, 0x00, 0x00, 0x00, 0x00, 0x00, 0x00, 0x00, 0x00, 0x00,
   0x00, 0x00, 0x00, 0x00, 0x00, 0x00, 0x00, 0x00, 0x00, 0x00, 0x00, 0x00,
   0x00, 0x00, 0x00, 0x00, 0x00, 0x00, 0x00, 0x00, 0x00, 0x00, 0x00, 0x00,
   0x00, 0x00, 0x00, 0x00, 0x00, 0x00, 0x00, 0x00, 0x00, 0x00, 0x00, 0x00,
   0x00, 0x00, 0x00, 0x00, 0x00, 0x00, 0x00, 0x00, 0x00, 0x00, 0x00, 0x00,
   0x00, 0x00, 0x00, 0x00, 0x00, 0x00, 0x00, 0x00, 0x00, 0x00, 0x00, 0x00,
   0x00, 0x00, 0x00, 0x00, 0x00, 0x00, 0x00, 0x00, 0x00, 0x00, 0x00, 0x00,
   0x00, 0x00, 0x00, 0x00, 0x00, 0x00, 0x00, 0x00, 0x00, 0x00, 0x00, 0x00,
   0x00, 0x00, 0x00, 0x00, 0x00, 0x00, 0x00, 0x00, 0x00, 0x20, 0x00, 0x00,
   0x00, 0x00, 0x00, 0x00, 0x00, 0x00, 0x00, 0x00, 0x00, 0x00, 0x00, 0x00,
   0x00, 0x00, 0x00, 0x00, 0x00, 0x00, 0x00, 0x00, 0x00, 0x00, 0x00, 0x00,
   0x00, 0x00, 0x00, 0x20, 0x00, 0x00, 0x00, 0x00, 0x00, 0x00, 0x00, 0x00,
   0x00, 0x00, 0x00, 0x00, 0x00, 0x00, 0x00, 0x00, 0x00, 0x00, 0x00, 0x00,
   0x00, 0x00, 0x00, 0x00, 0x00, 0x00, 0x00, 0x00, 0x00, 0x20, 0x00, 0x00,
   0x00, 0x00, 0x00, 0x00, 0x00, 0x00, 0x00, 0x00, 0x00, 0x00, 0x00, 0x00,
   0x00, 0x00, 0x00, 0x00, 0x00, 0x00, 0x00, 0x00, 0x00, 0x00, 0x00, 0x00,
   0x00, 0x00, 0x00, 0x60, 0x00, 0x00, 0x00, 0x00, 0x00, 0x00, 0x00, 0x00,
   0x00, 0x00, 0x00, 0x00, 0x00, 0x00, 0x00, 0x00, 0x00, 0x00, 0x00, 0x00,
   0x00, 0x00, 0x00, 0x00, 0x00, 0x00, 0x00, 0x00, 0x00, 0x20, 0x00, 0x00,
   0x00, 0x00, 0x00, 0x00, 0x00, 0x00, 0x00, 0x00, 0x00, 0x00, 0x00, 0x00,
   0x00, 0x00, 0x00, 0x00, 0x00, 0x00, 0x00, 0x00, 0x00, 0x00, 0x00, 0x00,
   0x00, 0x00, 0x00, 0x30, 0x00, 0x00, 0x00, 0x00, 0x00, 0x00, 0x00, 0x00,
   0x00, 0x00, 0x00, 0x00, 0x00, 0x00, 0x00, 0x00, 0x00, 0x00, 0x00, 0x00,
   0x00, 0x00, 0x00, 0x00, 0x00, 0x00, 0x00, 0x03, 0x18, 0x20, 0x00, 0x00,
   0x00, 0x00, 0x00, 0x00, 0x00, 0x00, 0x00, 0x00, 0x00, 0x00, 0x00, 0x00,
   0x00, 0x00, 0x00, 0x00, 0x00, 0x00, 0x00, 0x00, 0x00, 0x00, 0x00, 0x00,
   0x00, 0x02, 0x10, 0x70, 0x00, 0x00, 0x00, 0x00, 0x00, 0x00, 0x00, 0x00,
   0x00, 0x00, 0x00, 0x00, 0x00, 0x00, 0x00, 0x00, 0x00, 0x00, 0x00, 0x00,
   0x00, 0x00, 0x00, 0x00, 0x00, 0x00, 0x00, 0x06, 0x18, 0x21, 0x24, 0x00,
   0x00, 0x00, 0x00, 0x00, 0x00, 0x00, 0x00, 0x00, 0x00, 0x00, 0x00, 0x00,
   0x00, 0x00, 0x00, 0x00, 0x00, 0x00, 0x00, 0x00, 0x00, 0x00, 0x00, 0x00,
   0x00, 0x06, 0x30, 0x71, 0x64, 0x00, 0x00, 0x00, 0x00, 0x00, 0x00, 0x00,
   0x00, 0x00, 0x00, 0x00, 0x00, 0x00, 0x00, 0x00, 0x00, 0x00, 0x00, 0x00,
   0x00, 0x00, 0x00, 0x00, 0x00, 0x00, 0x00, 0x06, 0x11, 0x51, 0x62, 0x00,
   0x02, 0x00, 0x00, 0x00, 0x00, 0x00, 0x00, 0x00, 0x00, 0x00, 0x00, 0x00,
   0x00, 0x00, 0x00, 0x00, 0x00, 0x00, 0x00, 0x00, 0x00, 0x00, 0x00, 0x00,
   0x00, 0x04, 0x31, 0x71, 0x64, 0x00, 0x02, 0x00, 0x00, 0x00, 0x00, 0x00,
   0x00, 0x00, 0x00, 0x00, 0x00, 0x00, 0x00, 0x00, 0x00, 0x00, 0x00, 0x00,
   0x00, 0x00, 0x00, 0x00, 0x00, 0x00, 0x30, 0x0C, 0x30, 0x5A, 0x76, 0x00,
   0x02, 0x00, 0x00, 0x00, 0x00, 0x00, 0x00, 0x00, 0x00, 0x00, 0x00, 0x00,
   0x00, 0x00, 0x00, 0x00, 0x00, 0x00, 0x00, 0x00, 0x00, 0x00, 0x00, 0x00,
   0x10, 0x0C, 0x33, 0x4B, 0x52, 0x04, 0x03, 0x00, 0x00, 0x00, 0x00, 0x00,
   0x00, 0x00, 0x00, 0x00, 0x00, 0x00, 0x00, 0x00, 0x00, 0x00, 0x00, 0x00,
   0x00, 0x00, 0x00, 0x00, 0x00, 0x00, 0x30, 0x14, 0x51, 0xAF, 0x77, 0x04,
   0x01, 0x00, 0x00, 0x00, 0x00, 0x00, 0x00, 0x00, 0x00, 0x00, 0x00, 0x00,
   0x00, 0x00, 0x00, 0x00, 0x00, 0x00, 0x00, 0x00, 0x00, 0x00, 0x00, 0x00,
   0x70, 0x3C, 0xF2, 0x87, 0x57, 0x04, 0x01, 0x00, 0x00, 0x00, 0x00, 0x00,
   0x00, 0x00, 0x00, 0x00, 0x00, 0x00, 0x00, 0x00, 0x00, 0x00, 0x00, 0x00,
   0x00, 0x00, 0x00, 0x00, 0x00, 0x00, 0x50, 0xE8, 0xDF, 0x50, 0x7E, 0x84,
   0x01, 0x00, 0x00, 0x00, 0x00, 0x00, 0x00, 0x00, 0x00, 0x00, 0x00, 0x00,
   0x00, 0x00, 0x00, 0x00, 0x00, 0x00, 0x00, 0x00, 0x00, 0x00, 0x00, 0x00,
   0x60, 0xCC, 0x5F, 0x02, 0x50, 0x86, 0x01, 0x00, 0x00, 0x00, 0x00, 0x00,
   0x00, 0x00, 0x00, 0x00, 0x00, 0x00, 0x00, 0x00, 0x00, 0x00, 0x00, 0x00,
   0x00, 0x00, 0x00, 0x00, 0x00, 0x00, 0xA0, 0x08, 0xD0, 0x90, 0xDA, 0xC7,
   0x00, 0x00, 0x00, 0x00, 0x00, 0x00, 0x00, 0x00, 0x00, 0x00, 0x00, 0x00,
   0x00, 0x00, 0x00, 0x00, 0x00, 0x00, 0x00, 0x00, 0x00, 0x00, 0x00, 0x00,
   0xE0, 0x8C, 0x94, 0x08, 0xE8, 0x63, 0x01, 0x00, 0x00, 0x00, 0x00, 0x00,
   0x00, 0x00, 0x00, 0x00, 0x00, 0x00, 0x00, 0x00, 0x00, 0x00, 0x00, 0x00,
   0x00, 0x00, 0x00, 0x00, 0x00, 0x00, 0xA0, 0x44, 0xD0, 0x40, 0x4A, 0xBD,
   0x01, 0x00, 0x00, 0x00, 0x00, 0x00, 0x00, 0x00, 0x00, 0x00, 0x00, 0x00,
   0x00, 0x00, 0x00, 0x00, 0x00, 0x00, 0x00, 0x00, 0x00, 0x00, 0x00, 0x00,
   0x66, 0x17, 0x94, 0x14, 0x69, 0x9E, 0x10, 0x00, 0x00, 0x00, 0x00, 0x00,
   0x00, 0x00, 0x00, 0x00, 0x00, 0x00, 0x00, 0x00, 0x00, 0x00, 0x00, 0x00,
   0x00, 0x00, 0x00, 0x00, 0x00, 0x0C, 0x44, 0x03, 0x92, 0x10, 0x48, 0x50,
   0x19, 0x00, 0x00, 0x00, 0x00, 0x00, 0x00, 0x00, 0x00, 0x00, 0x00, 0x00,
   0x00, 0x00, 0x00, 0x00, 0x00, 0x00, 0x00, 0x00, 0x00, 0x00, 0x00, 0x08,
   0x44, 0x93, 0x98, 0x89, 0x6C, 0x89, 0x0D, 0x00, 0x00, 0x00, 0x00, 0x00,
   0x00, 0x00, 0x00, 0x00, 0x00, 0x00, 0x00, 0x00, 0x00, 0x00, 0x00, 0x00,
   0x00, 0x00, 0x00, 0x00, 0x00, 0x18, 0x68, 0x41, 0x08, 0x11, 0x44, 0xC4,
   0x25, 0x00, 0x00, 0x00, 0x00, 0x00, 0x00, 0x00, 0x00, 0x00, 0x00, 0x00,
   0x00, 0x00, 0x00, 0x00, 0x00, 0x00, 0x00, 0x00, 0x00, 0x00, 0x00, 0x30,
   0x7C, 0x46, 0x08, 0x99, 0x62, 0xA2, 0x27, 0x00, 0x00, 0x00, 0x00, 0x00,
   0x00, 0x00, 0x00, 0x00, 0x00, 0x00, 0x00, 0x00, 0x00, 0x00, 0x00, 0x00,
   0x00, 0x00, 0x00, 0x00, 0x00, 0x30, 0x98, 0x62, 0x84, 0x18, 0x48, 0x08,
   0x36, 0x00, 0x00, 0x00, 0x00, 0x00, 0x00, 0x00, 0x00, 0x00, 0x00, 0x00,
   0x00, 0x00, 0x00, 0x00, 0x00, 0x00, 0x00, 0x00, 0x00, 0x00, 0x00, 0x60,
   0xD8, 0x8C, 0x42, 0x88, 0x44, 0xA5, 0x36, 0x00, 0x00, 0x00, 0x00, 0x00,
   0x00, 0x00, 0x00, 0x00, 0x00, 0x00, 0x00, 0x00, 0x00, 0x00, 0x00, 0x00,
   0x00, 0x00, 0x00, 0x00, 0x00, 0xC0, 0x8F, 0xC4, 0x20, 0x28, 0x60, 0x08,
   0x18, 0x00, 0x00, 0x00, 0x00, 0x00, 0x00, 0x00, 0x00, 0x00, 0x00, 0x00,
   0x00, 0x00, 0x00, 0x00, 0x00, 0x00, 0x00, 0x00, 0x00, 0x00, 0x40, 0x40,
   0x87, 0x88, 0x01, 0x2C, 0x84, 0x24, 0x1D, 0x00, 0x00, 0x00, 0x00, 0x00,
   0x00, 0x00, 0x00, 0x00, 0x00, 0x00, 0x00, 0x00, 0x00, 0x00, 0x00, 0x00,
   0x00, 0x00, 0x00, 0x00, 0xC0, 0xC0, 0xC2, 0xD0, 0x10, 0x20, 0x42, 0x96,
   0x1C, 0x83, 0x01, 0x00, 0x00, 0x00, 0x00, 0x00, 0x00, 0x00, 0x00, 0x00,
   0x00, 0x00, 0x00, 0x00, 0x00, 0x00, 0x00, 0x00, 0x00, 0x00, 0xE0, 0x41,
   0x20, 0x00, 0x01, 0x3A, 0x20, 0x06, 0xD6, 0xC1, 0x00, 0x00, 0x00, 0x00,
   0x00, 0x00, 0x00, 0x00, 0x00, 0x00, 0x00, 0x00, 0x00, 0x00, 0x00, 0x00,
   0x00, 0x00, 0x00, 0x00, 0x40, 0x82, 0x90, 0x84, 0x0A, 0x09, 0x02, 0x93,
   0xFB, 0xE0, 0x00, 0x00, 0x00, 0x00, 0x00, 0x00, 0x00, 0x00, 0x00, 0x00,
   0x00, 0x00, 0x00, 0x00, 0x00, 0x00, 0x00, 0x00, 0x00, 0x00, 0x80, 0xC7,
   0x84, 0xA0, 0x82, 0x24, 0x21, 0x85, 0x48, 0x70, 0x00, 0x00, 0x00, 0x00,
   0x00, 0x00, 0x00, 0x00, 0x00, 0x00, 0x00, 0x00, 0x00, 0x00, 0x00, 0x00,
   0x00, 0x00, 0x00, 0x00, 0x80, 0x44, 0x00, 0x80, 0x06, 0x44, 0x00, 0xC5,
   0x6A, 0x7C, 0x00, 0x00, 0x00, 0x00, 0x00, 0x00, 0x00, 0x00, 0x00, 0x00,
   0x00, 0x00, 0x00, 0x00, 0x00, 0x00, 0x00, 0x00, 0x00, 0x00, 0x00, 0x7B,
   0x04, 0x84, 0x04, 0x20, 0xA4, 0x65, 0xC8, 0x2F, 0x00, 0x00, 0x00, 0x00,
   0x00, 0x00, 0x00, 0x00, 0x00, 0x00, 0x00, 0x00, 0x00, 0x00, 0x00, 0x00,
   0x00, 0x00, 0x00, 0x00, 0x00, 0x33, 0x52, 0x22, 0x88, 0x02, 0x82, 0x04,
   0xAC, 0x37, 0x00, 0x00, 0x00, 0x00, 0x00, 0x00, 0x00, 0x00, 0x00, 0x00,
   0x00, 0x00, 0x00, 0x00, 0x00, 0x00, 0x00, 0x00, 0x00, 0x00, 0x00, 0x62,
   0x19, 0x80, 0x84, 0x10, 0x42, 0x02, 0x05, 0x10, 0x00, 0x00, 0x00, 0x00,
   0x00, 0x00, 0x00, 0x00, 0x00, 0x00, 0x00, 0x00, 0x00, 0x00, 0x00, 0x00,
   0x00, 0x00, 0x00, 0x00, 0xC0, 0x8C, 0x31, 0x80, 0x40, 0x00, 0x53, 0xA2,
   0x54, 0x1D, 0x00, 0x00, 0x00, 0x00, 0x00, 0x00, 0x00, 0x00, 0x00, 0x00,
   0x00, 0x00, 0x00, 0x00, 0x00, 0x00, 0x00, 0x00, 0x00, 0x00, 0x80, 0x8D,
   0x23, 0x82, 0x80, 0x00, 0x02, 0x12, 0x04, 0x0C, 0x00, 0x00, 0x00, 0x00,
   0x00, 0x00, 0x00, 0x00, 0x00, 0x00, 0x00, 0x00, 0x00, 0x00, 0x00, 0x00,
   0x00, 0x00, 0x00, 0x80, 0x01, 0x1F, 0xE4, 0x20, 0xC0, 0x10, 0x03, 0x02,
   0x54, 0x0B, 0x00, 0x00, 0x00, 0x00, 0x00, 0x00, 0x00, 0x00, 0x00, 0x00,
   0x00, 0x00, 0x00, 0x00, 0x00, 0x00, 0x00, 0x00, 0x00, 0x00, 0x03, 0x8E,
   0xE0, 0x00, 0x50, 0x89, 0x91, 0x90, 0x02, 0x0C, 0x00, 0x00, 0x00, 0x00,
   0x00, 0x00, 0x00, 0x00, 0x00, 0x00, 0x00, 0x00, 0x00, 0x00, 0x00, 0x00,
   0x00, 0x00, 0x00, 0x00, 0x07, 0x36, 0x00, 0x23, 0x48, 0x80, 0x04, 0x06,
   0xA8, 0x06, 0x00, 0x00, 0x00, 0x00, 0x00, 0x00, 0x00, 0x00, 0x00, 0x00,
   0x00, 0x00, 0x00, 0x00, 0x00, 0x00, 0x00, 0x00, 0x00, 0x00, 0x1E, 0x3F,
   0x40, 0x56, 0x44, 0x01, 0x04, 0x80, 0x04, 0xDC, 0x00, 0x00, 0x00, 0x00,
   0x00, 0x00, 0x00, 0x00, 0x00, 0x00, 0x00, 0x00, 0x00, 0x00, 0x00, 0x00,
   0x00, 0x00, 0x00, 0x00, 0xF4, 0x77, 0xA4, 0x40, 0x40, 0x01, 0x84, 0x30,
   0x60, 0x7D, 0x00, 0x00, 0x00, 0x00, 0x00, 0x00, 0x00, 0x00, 0x00, 0x00,
   0x00, 0x00, 0x00, 0x00, 0x00, 0x00, 0x00, 0x00, 0x00, 0x00, 0xCC, 0x61,
   0x82, 0xC0, 0x00, 0x90, 0x40, 0x14, 0x32, 0x1C, 0x00, 0x00, 0x00, 0x00,
   0x00, 0x00, 0x00, 0x00, 0x00, 0x00, 0x00, 0x00, 0x00, 0x00, 0x00, 0x00,
   0x00, 0x00, 0x00, 0x00, 0x08, 0x40, 0x80, 0x20, 0x40, 0x08, 0x00, 0x08,
   0x19, 0x09, 0x00, 0x00, 0x00, 0x00, 0x00, 0x00, 0x00, 0x00, 0x00, 0x00,
   0x00, 0x00, 0x00, 0x00, 0x00, 0x00, 0x00, 0x00, 0x00, 0x00, 0x30, 0x40,
   0x00, 0x40, 0x13, 0x00, 0x20, 0x8C, 0xB8, 0x1C, 0x00, 0x00, 0x00, 0x00,
   0x00, 0x00, 0x00, 0x00, 0x00, 0x00, 0x00, 0x00, 0x00, 0x00, 0x00, 0x00,
   0x00, 0x00, 0x00, 0x00, 0x10, 0x08, 0x40, 0x21, 0x00, 0x00, 0x04, 0x27,
   0x2C, 0x08, 0x00, 0x00, 0x00, 0x00, 0x00, 0x00, 0x00, 0x00, 0x00, 0x00,
   0x00, 0x00, 0x00, 0x00, 0x00, 0x00, 0x00, 0x00, 0x00, 0x00, 0xA0, 0x02,
   0x24, 0x50, 0x10, 0x08, 0x01, 0x08, 0x66, 0x1A, 0x00, 0x00, 0x00, 0x00,
   0x00, 0x00, 0x00, 0x00, 0x00, 0x00, 0x00, 0x00, 0x00, 0x00, 0x00, 0x00,
   0x00, 0x00, 0x00, 0x00, 0x66, 0x40, 0x12, 0x40, 0x28, 0x84, 0x44, 0x02,
   0x43, 0x19, 0x00, 0x00, 0x00, 0x00, 0x00, 0x00, 0x00, 0x00, 0x00, 0x00,
   0x00, 0x00, 0x00, 0x00, 0x00, 0x00, 0x00, 0x00, 0x00, 0x00, 0x38, 0x20,
   0x20, 0x02, 0x10, 0x00, 0x02, 0x48, 0xC1, 0x30, 0x00, 0x00, 0x00, 0x00,
   0x00, 0x00, 0x00, 0x00, 0x00, 0x00, 0x00, 0x00, 0x00, 0x00, 0x00, 0x00,
   0x00, 0x00, 0x00, 0x00, 0x70, 0x04, 0x60, 0x40, 0x00, 0x00, 0x09, 0x04,
   0x81, 0x74, 0x00, 0x00, 0x00, 0x00, 0x00, 0x00, 0x00, 0x00, 0x00, 0x00,
   0x00, 0x00, 0x00, 0x00, 0x00, 0x00, 0x00, 0x00, 0x00, 0x00, 0x20, 0x18,
   0xC0, 0x20, 0x18, 0x8A, 0x84, 0x80, 0x81, 0x71, 0x00, 0x00, 0x00, 0x00,
   0x00, 0x00, 0x00, 0x00, 0x00, 0x00, 0x00, 0x00, 0x00, 0x00, 0x00, 0x00,
   0x00, 0x00, 0x00, 0x00, 0x20, 0x79, 0xC8, 0x01, 0x80, 0x04, 0x00, 0xA0,
   0x40, 0x99, 0x00, 0x00, 0x00, 0x00, 0x00, 0x00, 0x00, 0x00, 0x00, 0x00,
   0x00, 0x00, 0x00, 0x00, 0x00, 0x00, 0x00, 0x00, 0x00, 0x00, 0xA0, 0xF0,
   0x41, 0x06, 0x08, 0x02, 0x00, 0xC4, 0x20, 0x95, 0x01, 0x00, 0x00, 0x00,
   0x00, 0x00, 0x00, 0x00, 0x00, 0x00, 0x00, 0x00, 0x00, 0x00, 0x00, 0x00,
   0x00, 0x00, 0x00, 0xC0, 0x21, 0x40, 0x8F, 0x00, 0x00, 0x08, 0x40, 0x42,
   0x88, 0x92, 0x01, 0x00, 0x00, 0x00, 0x00, 0x00, 0x00, 0x00, 0x00, 0x00,
   0x00, 0x00, 0x00, 0x00, 0x00, 0x00, 0x00, 0x00, 0x00, 0xC0, 0x33, 0x48,
   0x80, 0x40, 0x02, 0x82, 0x24, 0x60, 0xFF, 0x37, 0x01, 0x00, 0x00, 0x00,
   0x00, 0x00, 0x00, 0x00, 0x00, 0x00, 0x00, 0x00, 0x00, 0x00, 0x00, 0x00,
   0x00, 0x00, 0x00, 0xC0, 0x1E, 0xC4, 0xA0, 0x00, 0x40, 0x00, 0x00, 0xE0,
   0x57, 0xB3, 0x02, 0x00, 0x00, 0x00, 0x00, 0x00, 0x00, 0x00, 0x00, 0x00,
   0x00, 0x00, 0x00, 0x00, 0x00, 0x00, 0x00, 0x00, 0x00, 0x80, 0xF9, 0x03,
   0x11, 0x00, 0x20, 0x00, 0x80, 0xA1, 0x00, 0xF7, 0x03, 0x00, 0x00, 0x00,
   0x00, 0x00, 0x00, 0x00, 0x00, 0x00, 0x00, 0x00, 0x00, 0x00, 0x00, 0x00,
   0x00, 0x00, 0x00, 0x00, 0xE7, 0x82, 0x01, 0x21, 0x00, 0x00, 0xC0, 0xC8,
   0x00, 0x12, 0x03, 0x00, 0x00, 0x00, 0x00, 0x00, 0x00, 0x00, 0x00, 0x00,
   0x00, 0x00, 0x00, 0x00, 0x00, 0x00, 0x00, 0x00, 0x00, 0x00, 0x02, 0x00,
   0x00, 0x10, 0x12, 0x91, 0x24, 0x80, 0xE0, 0xB2, 0x03, 0x00, 0x00, 0x00,
   0x00, 0x00, 0x00, 0x00, 0x00, 0x00, 0x00, 0x00, 0x00, 0x00, 0x00, 0x00,
   0x00, 0x00, 0x00, 0x00, 0x0C, 0x00, 0x01, 0x80, 0x01, 0x09, 0x02, 0xC0,
   0xE0, 0x7A, 0x01, 0x00, 0x00, 0x00, 0x00, 0x00, 0x00, 0x00, 0x00, 0x00,
   0x00, 0x00, 0x00, 0x00, 0x00, 0x00, 0x00, 0x00, 0x00, 0x00, 0x58, 0x20,
   0x92, 0x07, 0x80, 0x04, 0x01, 0x84, 0x60, 0xD2, 0x01, 0x00, 0x00, 0x00,
   0x00, 0x00, 0x00, 0x00, 0x00, 0x00, 0x00, 0x00, 0x00, 0x00, 0x00, 0x00,
   0x00, 0x00, 0x00, 0x00, 0x38, 0x04, 0x00, 0x80, 0x00, 0x00, 0x00, 0xA1,
   0xE1, 0x6A, 0x01, 0x00, 0x00, 0x00, 0x00, 0x00, 0x00, 0x00, 0x00, 0x00,
   0x00, 0x00, 0x00, 0x00, 0x00, 0x00, 0x00, 0x00, 0x3C, 0x40, 0x38, 0x20,
   0x02, 0x02, 0x12, 0x00, 0x20, 0xE0, 0x00, 0x76, 0x03, 0x00, 0x00, 0x00,
   0x00, 0x00, 0x00, 0x00, 0x00, 0x00, 0x00, 0x00, 0x00, 0x00, 0x00, 0x00,
   0x00, 0x00, 0xEF, 0xC0, 0x5F, 0x30, 0x10, 0x02, 0x00, 0x02, 0x12, 0x80,
   0x07, 0x32, 0x01, 0x00, 0x00, 0x00, 0x00, 0x00, 0x00, 0x00, 0x00, 0x00,
   0x00, 0x00, 0x00, 0x00, 0x00, 0x00, 0x00, 0x80, 0xA3, 0x00, 0xEF, 0x14,
   0x1A, 0x41, 0x00, 0x81, 0x00, 0x08, 0x06, 0x13, 0x07, 0x00, 0x00, 0x00,
   0x00, 0x00, 0x00, 0x00, 0x00, 0x00, 0x00, 0x00, 0x00, 0x00, 0x00, 0x00,
   0x00, 0xC0, 0x89, 0x03, 0xCE, 0x18, 0x07, 0x00, 0x08, 0x40, 0x00, 0x42,
   0x18, 0x3B, 0x07, 0x00, 0x00, 0x00, 0x00, 0x00, 0x00, 0x00, 0x00, 0x00,
   0x00, 0x00, 0x00, 0x00, 0x00, 0x00, 0x00, 0xE0, 0x25, 0x02, 0x08, 0x8E,
   0x03, 0x00, 0x84, 0x00, 0x00, 0x00, 0x34, 0xA1, 0x05, 0x00, 0x00, 0x00,
   0x00, 0x00, 0x00, 0x00, 0x00, 0x00, 0x00, 0x00, 0x00, 0x00, 0x00, 0x00,
   0x00, 0x10, 0x53, 0x0D, 0x8C, 0x08, 0x04, 0x40, 0x00, 0xA0, 0x40, 0x00,
   0xB2, 0xB5, 0x0C, 0x00, 0x00, 0x00, 0x00, 0x00, 0x00, 0x00, 0x00, 0x00,
   0x00, 0x00, 0x00, 0x00, 0x00, 0x00, 0x00, 0x00, 0x3E, 0x0C, 0x04, 0x34,
   0x88, 0x08, 0x40, 0x02, 0x10, 0x48, 0xC0, 0xE2, 0x0A, 0x00, 0x00, 0x00,
   0x00, 0x00, 0x00, 0x00, 0x00, 0x00, 0x00, 0x00, 0x00, 0x00, 0x00, 0x00,
   0x00, 0x00, 0x86, 0x12, 0x0C, 0x00, 0x10, 0x00, 0x04, 0x00, 0x08, 0x04,
   0xE0, 0xF1, 0x18, 0x00, 0x00, 0x00, 0x00, 0x00, 0x00, 0x00, 0x00, 0x00,
   0x00, 0x00, 0x00, 0x00, 0x00, 0x00, 0x00, 0x00, 0x2C, 0x38, 0x84, 0x00,
   0x00, 0x00, 0x00, 0x20, 0x08, 0x02, 0xCA, 0x78, 0x1B, 0x00, 0x00, 0x00,
   0x00, 0x00, 0x00, 0x00, 0x00, 0x00, 0x00, 0x00, 0x00, 0x00, 0x00, 0x00,
   0x00, 0x00, 0xD8, 0x22, 0x4E, 0x02, 0x00, 0x44, 0x42, 0x00, 0x02, 0x80,
   0x40, 0x08, 0x1B, 0x00, 0x00, 0x00, 0x00, 0x00, 0x00, 0x00, 0x00, 0x00,
   0x00, 0x00, 0x00, 0x00, 0x00, 0x00, 0x00, 0x00, 0x18, 0xE1, 0x07, 0x21,
   0x12, 0x41, 0x00, 0x08, 0x00, 0x49, 0xC0, 0x0C, 0x16, 0x00, 0x00, 0x00,
   0x00, 0x00, 0x00, 0x00, 0x00, 0x00, 0x00, 0x00, 0x00, 0x00, 0x00, 0x00,
   0x00, 0x00, 0x50, 0xC8, 0x89, 0x01, 0x00, 0x20, 0x20, 0x04, 0x00, 0x00,
   0x48, 0x0A, 0x32, 0x00, 0x00, 0x00, 0x00, 0x00, 0x00, 0x00, 0x00, 0x00,
   0x00, 0x00, 0x00, 0x00, 0x00, 0x00, 0x00, 0x00, 0x30, 0x25, 0xCC, 0x00,
   0x00, 0x41, 0x10, 0x00, 0x81, 0x60, 0xC4, 0x04, 0x3D, 0x00, 0x00, 0x00,
   0x00, 0x00, 0x00, 0x00, 0x00, 0x00, 0x00, 0x00, 0x00, 0x00, 0x00, 0x00,
   0x00, 0x00, 0xA0, 0x00, 0x62, 0xA0, 0x82, 0x00, 0x08, 0x84, 0x10, 0x80,
   0x40, 0x86, 0x24, 0x00, 0x00, 0x00, 0x00, 0x00, 0x00, 0x00, 0x00, 0x00,
   0x00, 0x00, 0x00, 0x00, 0x00, 0x00, 0x00, 0x00, 0x60, 0x94, 0xF8, 0x83,
   0xC0, 0x00, 0x14, 0x02, 0x00, 0x88, 0xA0, 0x42, 0x34, 0x00, 0x00, 0x00,
   0x00, 0x00, 0x00, 0x00, 0x00, 0x00, 0x00, 0x00, 0x00, 0x00, 0x00, 0x00,
   0x00, 0x00, 0x40, 0x01, 0x00, 0x42, 0x20, 0x22, 0x22, 0x00, 0x03, 0x44,
   0xC8, 0x42, 0x24, 0x00, 0x00, 0x00, 0x00, 0x00, 0x00, 0x00, 0x00, 0x00,
   0x00, 0x00, 0x00, 0x00, 0x00, 0x00, 0x00, 0x00, 0xC0, 0x95, 0x04, 0x52,
   0x00, 0x00, 0x00, 0x08, 0x81, 0x40, 0x44, 0x21, 0x76, 0x00, 0x00, 0x00,
   0x00, 0x00, 0x00, 0x00, 0x00, 0x00, 0x00, 0x00, 0x00, 0x00, 0x00, 0x00,
   0x00, 0x00, 0x80, 0x04, 0x00, 0x40, 0x00, 0x10, 0x00, 0x82, 0x20, 0x00,
   0xC2, 0x31, 0x2A, 0x00, 0x00, 0x00, 0x00, 0x00, 0x00, 0x00, 0x00, 0x00,
   0x00, 0x00, 0x00, 0x00, 0x00, 0x00, 0x00, 0x00, 0x80, 0xA3, 0x44, 0x20,
   0x24, 0x08, 0x02, 0x00, 0x00, 0x08, 0xE0, 0x18, 0x63, 0x00, 0x00, 0x00,
   0x00, 0x00, 0x00, 0x00, 0x00, 0x00, 0x00, 0x00, 0x00, 0x00, 0x00, 0x00,
   0x00, 0x00, 0x80, 0x15, 0x20, 0x32, 0x20, 0x00, 0x41, 0x01, 0x40, 0x84,
   0xC0, 0x1E, 0xF5, 0x00, 0x00, 0x00, 0x00, 0x00, 0x00, 0x00, 0x00, 0x00,
   0x00, 0x00, 0x00, 0x00, 0x00, 0x00, 0x00, 0x00, 0x00, 0x01, 0x8A, 0x10,
   0x22, 0xE4, 0xFF, 0x80, 0x10, 0x00, 0xE4, 0xBE, 0xD3, 0x01, 0x00, 0x00,
   0x00, 0x00, 0x00, 0x00, 0x00, 0x00, 0x00, 0x00, 0x00, 0x00, 0x00, 0x00,
   0x00, 0x00, 0x00, 0x93, 0x40, 0x98, 0x13, 0x70, 0x5C, 0x40, 0x20, 0x40,
   0x70, 0xE0, 0xE9, 0x00, 0x00, 0x00, 0x00, 0x00, 0x00, 0x00, 0x00, 0x00,
   0x00, 0x00, 0x00, 0x00, 0x00, 0x00, 0x00, 0x00, 0x00, 0x09, 0x48, 0xCC,
   0x15, 0x18, 0x00, 0x20, 0x10, 0x02, 0xE1, 0x20, 0x2B, 0x03, 0x00, 0x00,
   0x00, 0x00, 0x00, 0x00, 0x00, 0x00, 0x00, 0x00, 0x00, 0x00, 0x00, 0x00,
   0x00, 0x00, 0x00, 0x46, 0x4A, 0x3E, 0x00, 0x14, 0x40, 0x01, 0x80, 0x90,
   0xB8, 0x20, 0x62, 0x03, 0x00, 0x00, 0x00, 0x00, 0x00, 0x00, 0x00, 0x00,
   0x00, 0x00, 0x00, 0x00, 0x00, 0x00, 0x00, 0x00, 0x00, 0x22, 0x68, 0x02,
   0x38, 0x18, 0xA4, 0x51, 0x00, 0x04, 0x90, 0x20, 0x2B, 0x02, 0x00, 0x00,
   0x00, 0x00, 0x00, 0x00, 0x00, 0x00, 0x00, 0x00, 0x00, 0x00, 0x00, 0x00,
   0x00, 0x00, 0x00, 0x1E, 0x29, 0x00, 0x6C, 0x0A, 0x81, 0x20, 0x48, 0x00,
   0x9C, 0x08, 0x32, 0x02, 0x00, 0x00, 0x00, 0x00, 0x00, 0x00, 0x00, 0x00,
   0x00, 0x00, 0x00, 0x00, 0x00, 0x00, 0x00, 0x00, 0x00, 0x04, 0x38, 0x08,
   0x01, 0x0C, 0x60, 0x00, 0x00, 0x4E, 0x81, 0x21, 0x2A, 0x05, 0x00, 0x00,
   0x00, 0x00, 0x00, 0x00, 0x00, 0x00, 0x00, 0x00, 0x00, 0x00, 0x00, 0x00,
   0x00, 0x00, 0x00, 0xAC, 0x34, 0x84, 0x00, 0x84, 0x20, 0x00, 0x04, 0x04,
   0x4C, 0x01, 0x36, 0x2C, 0x00, 0x00, 0x00, 0x00, 0x00, 0x00, 0x00, 0x00,
   0x00, 0x00, 0x00, 0x00, 0x00, 0x00, 0x00, 0x00, 0x00, 0x14, 0xDA, 0x4A,
   0x10, 0x26, 0x30, 0x90, 0x00, 0x04, 0x24, 0x01, 0x13, 0x3C, 0x00, 0x00,
   0x00, 0x00, 0x00, 0x00, 0x00, 0x00, 0x00, 0x00, 0x00, 0x00, 0x00, 0x00,
   0x00, 0x00, 0x00, 0x98, 0x9C, 0x08, 0x08, 0x12, 0x18, 0x08, 0x20, 0x49,
   0x86, 0x21, 0xBA, 0x3A, 0x00, 0x00, 0x00, 0x00, 0x00, 0x00, 0x00, 0x00,
   0x00, 0x00, 0x00, 0x00, 0x00, 0x00, 0x00, 0x00, 0x00, 0x0C, 0x14, 0x0C,
   0x08, 0x03, 0x88, 0x00, 0x14, 0x00, 0x23, 0x01, 0x5B, 0x12, 0x00, 0x00,
   0x00, 0x00, 0x00, 0x00, 0x00, 0x00, 0x00, 0x00, 0x00, 0x00, 0x00, 0x00,
   0x00, 0x00, 0x00, 0x48, 0x16, 0x06, 0x88, 0x09, 0x4A, 0x00, 0x14, 0x00,
   0x12, 0x11, 0x79, 0x1D, 0x00, 0x00, 0x00, 0x00, 0x00, 0x00, 0x00, 0x00,
   0x00, 0x00, 0x00, 0x00, 0x00, 0x00, 0x00, 0x00, 0x00, 0x58, 0x22, 0x85,
   0x8C, 0x26, 0x4C, 0x08, 0x0A, 0x49, 0x01, 0x03, 0xEF, 0x0F, 0x00, 0x00,
   0x00, 0x00, 0x00, 0x00, 0x00, 0x00, 0x00, 0x00, 0x00, 0x00, 0x00, 0x00,
   0x00, 0x00, 0x00, 0x28, 0xA2, 0x22, 0xC4, 0x91, 0x06, 0x04, 0x19, 0x00,
   0x90, 0x83, 0x49, 0x0B, 0x00, 0x00, 0x00, 0x00, 0x00, 0x00, 0x00, 0x00,
   0x00, 0x00, 0x00, 0x00, 0x00, 0x00, 0x00, 0x00, 0x00, 0x30, 0x63, 0x1A,
   0xC6, 0x0C, 0x03, 0x12, 0x00, 0x09, 0x08, 0xD5, 0x06, 0x01, 0x00, 0x00,
   0x00, 0x00, 0x00, 0x00, 0x00, 0x00, 0x00, 0x00, 0x00, 0x00, 0x00, 0x00,
   0x00, 0x00, 0x00, 0x18, 0x61, 0x8F, 0xA2, 0xD6, 0x01, 0x0D, 0x10, 0x48,
   0x85, 0x7F, 0x03, 0x00, 0x00, 0x00, 0x00, 0x00, 0x00, 0x00, 0x00, 0x00,
   0x00, 0x00, 0x00, 0x00, 0x00, 0x00, 0x00, 0x00, 0x00, 0x90, 0x43, 0x07,
   0x1A, 0xDF, 0x80, 0x08, 0x82, 0x08, 0xC0, 0x5D, 0x03, 0x00, 0x00, 0x00,
   0x00, 0x00, 0x00, 0x00, 0x00, 0x00, 0x00, 0x00, 0x00, 0x00, 0x00, 0x00,
   0x00, 0x00, 0x00, 0x50, 0xC1, 0x03, 0x07, 0xE8, 0x24, 0x04, 0x00, 0x09,
   0xAC, 0xA0, 0x01, 0x00, 0x00, 0x00, 0x00, 0x00, 0x00, 0x00, 0x00, 0x00,
   0x00, 0x00, 0x00, 0x00, 0x00, 0x00, 0x00, 0x00, 0x00, 0xB0, 0xE1, 0x81,
   0x03, 0x60, 0x00, 0x00, 0x41, 0x8A, 0x8A, 0x94, 0x00, 0x00, 0x00, 0x00,
   0x00, 0x00, 0x00, 0x00, 0x00, 0x00, 0x00, 0x00, 0x00, 0x00, 0x00, 0x00,
   0x00, 0x00, 0x00, 0xF8, 0xE0, 0xA1, 0x00, 0x01, 0x02, 0x00, 0x20, 0x12,
   0xC8, 0xC4, 0x00, 0x00, 0x00, 0x00, 0x00, 0x00, 0x00, 0x00, 0x00, 0x00,
   0x00, 0x00, 0x00, 0x00, 0x00, 0x00, 0x00, 0x00, 0x00, 0x68, 0xE0, 0x14,
   0x82, 0x60, 0x21, 0x80, 0x12, 0x8C, 0x48, 0x74, 0x00, 0x00, 0x00, 0x00,
   0x00, 0x00, 0x00, 0x00, 0x00, 0x00, 0x00, 0x00, 0x00, 0x00, 0x00, 0x00,
   0x00, 0x00, 0x00, 0x38, 0x30, 0x01, 0x41, 0x02, 0xA1, 0x64, 0x02, 0x94,
   0x2B, 0x6A, 0x00, 0x00, 0x00, 0x00, 0x00, 0x00, 0x00, 0x00, 0x00, 0x00,
   0x00, 0x00, 0x00, 0x00, 0x00, 0x00, 0x00, 0x00, 0x00, 0x0C, 0x10, 0x03,
   0x02, 0xC1, 0x40, 0x00, 0x02, 0x1A, 0x12, 0x79, 0x00, 0x00, 0x00, 0x00,
   0x00, 0x00, 0x00, 0x00, 0x00, 0x00, 0x00, 0x00, 0x00, 0x00, 0x00, 0x00,
   0x00, 0x00, 0x00, 0x00, 0x18, 0x11, 0x21, 0x50, 0xA0, 0xC1, 0x82, 0x90,
   0x9C, 0xDC, 0x00, 0x00, 0x00, 0x00, 0x00, 0x00, 0x00, 0x00, 0x00, 0x00,
   0x00, 0x00, 0x00, 0x00, 0x00, 0x00, 0x00, 0x00, 0x00, 0x00, 0x08, 0x86,
   0x12, 0x53, 0xC0, 0x10, 0x21, 0x12, 0xAC, 0xC9, 0x00, 0x00, 0x00, 0x00,
   0x00, 0x00, 0x00, 0x00, 0x00, 0x00, 0x00, 0x00, 0x00, 0x00, 0x00, 0x00,
   0x00, 0x00, 0x00, 0x00, 0x00, 0x07, 0x01, 0x09, 0x50, 0x00, 0x03, 0x81,
   0x32, 0x17, 0x01, 0x00, 0x00, 0x00, 0x00, 0x00, 0x00, 0x00, 0x00, 0x00,
   0x00, 0x00, 0x00, 0x00, 0x00, 0x00, 0x00, 0x00, 0x00, 0x00, 0x00, 0x26,
   0x01, 0x05, 0x88, 0x00, 0x01, 0x22, 0x30, 0x1E, 0x01, 0x00, 0x00, 0x00,
   0x00, 0x00, 0x00, 0x00, 0x00, 0x00, 0x00, 0x00, 0x00, 0x00, 0x00, 0x00,
   0x00, 0x00, 0x00, 0x00, 0x00, 0x8D, 0x91, 0x02, 0x44, 0x90, 0xB0, 0x12,
   0xB5, 0x16, 0x00, 0x00, 0x00, 0x00, 0x00, 0x00, 0x00, 0x00, 0x00, 0x00,
   0x00, 0x00, 0x00, 0x00, 0x00, 0x00, 0x00, 0x00, 0x00, 0x00, 0x00, 0x9B,
   0x28, 0x03, 0x03, 0x08, 0x28, 0x82, 0x42, 0x32, 0x00, 0x00, 0x00, 0x00,
   0x00, 0x00, 0x00, 0x00, 0x00, 0x00, 0x00, 0x00, 0x00, 0x00, 0x00, 0x00,
   0x00, 0x00, 0x00, 0x00, 0x00, 0x99, 0x91, 0x41, 0x00, 0x00, 0x24, 0x42,
   0x10, 0x13, 0x00, 0x00, 0x00, 0x00, 0x00, 0x00, 0x00, 0x00, 0x00, 0x00,
   0x00, 0x00, 0x00, 0x00, 0x00, 0x00, 0x00, 0x00, 0x00, 0x00, 0x80, 0xED,
   0x18, 0x21, 0x66, 0x84, 0x40, 0x12, 0x46, 0x03, 0x00, 0x00, 0x00, 0x00,
   0x00, 0x00, 0x00, 0x00, 0x00, 0x00, 0x00, 0x00, 0x00, 0x00, 0x00, 0x00,
   0x00, 0x00, 0x00, 0x00, 0x80, 0xE6, 0x8C, 0x09, 0x20, 0x48, 0x42, 0x41,
   0x92, 0x03, 0x00, 0x00, 0x00, 0x00, 0x00, 0x00, 0x00, 0x00, 0x00, 0x00,
   0x00, 0x00, 0x00, 0x00, 0x00, 0x00, 0x00, 0x00, 0x00, 0x00, 0x80, 0xC3,
   0x84, 0x08, 0x24, 0x94, 0x90, 0x0A, 0xA5, 0x02, 0x00, 0x00, 0x00, 0x00,
   0x00, 0x00, 0x00, 0x00, 0x00, 0x00, 0x00, 0x00, 0x00, 0x00, 0x00, 0x00,
   0x00, 0x00, 0x00, 0x00, 0x80, 0x81, 0x4E, 0x04, 0x35, 0x92, 0x80, 0xA1,
   0x94, 0x05, 0x00, 0x00, 0x00, 0x00, 0x00, 0x00, 0x00, 0x00, 0x00, 0x00,
   0x00, 0x00, 0x00, 0x00, 0x00, 0x00, 0x00, 0x00, 0x00, 0x00, 0xC0, 0x40,
   0x06, 0x88, 0x04, 0x90, 0x44, 0x36, 0xCC, 0x06, 0x00, 0x00, 0x00, 0x00,
   0x00, 0x00, 0x00, 0x00, 0x00, 0x00, 0x00, 0x00, 0x00, 0x00, 0x00, 0x00,
   0x00, 0x00, 0x00, 0x00, 0x40, 0x80, 0x03, 0x4C, 0x18, 0x90, 0x10, 0x63,
   0xE5, 0x0D, 0x00, 0x00, 0x00, 0x00, 0x00, 0x00, 0x00, 0x00, 0x00, 0x00,
   0x00, 0x00, 0x00, 0x00, 0x00, 0x00, 0x00, 0x00, 0x00, 0x00, 0x40, 0x40,
   0x4D, 0x01, 0x45, 0xA9, 0x40, 0x86, 0x6C, 0x0F, 0x00, 0x00, 0x00, 0x00,
   0x00, 0x00, 0x00, 0x00, 0x00, 0x00, 0x00, 0x00, 0x00, 0x00, 0x00, 0x00,
   0x00, 0x00, 0x00, 0x00, 0x60, 0xC0, 0x2C, 0x88, 0x38, 0xA0, 0x54, 0xD2,
   0x39, 0x1E, 0x00, 0x00, 0x00, 0x00, 0x00, 0x00, 0x00, 0x00, 0x00, 0x00,
   0x00, 0x00, 0x00, 0x00, 0x00, 0x00, 0x00, 0x00, 0x00, 0x00, 0x00, 0x60,
   0x18, 0xAC, 0x4C, 0xA8, 0x42, 0x06, 0x1B, 0x30, 0x00, 0x00, 0x00, 0x00,
   0x00, 0x00, 0x00, 0x00, 0x00, 0x00, 0x00, 0x00, 0x00, 0x00, 0x00, 0x00,
   0x00, 0x00, 0x00, 0x00, 0x00, 0x40, 0x30, 0x89, 0x48, 0x44, 0x42, 0xD5,
   0x0B, 0x30, 0x00, 0x00, 0x00, 0x00, 0x00, 0x00, 0x00, 0x00, 0x00, 0x00,
   0x00, 0x00, 0x00, 0x00, 0x00, 0x00, 0x00, 0x00, 0x00, 0x00, 0x00, 0x60,
   0xF0, 0xCC, 0x4C, 0xDA, 0x6C, 0x04, 0x17, 0x60, 0x00, 0x00, 0x00, 0x00,
   0x00, 0x00, 0x00, 0x00, 0x00, 0x00, 0x00, 0x00, 0x00, 0x00, 0x00, 0x00,
   0x00, 0x00, 0x00, 0x00, 0x00, 0x20, 0xE0, 0x6C, 0xC0, 0x48, 0x86, 0xA8,
   0x35, 0x00, 0x00, 0x00, 0x00, 0x00, 0x00, 0x00, 0x00, 0x00, 0x00, 0x00,
   0x00, 0x00, 0x00, 0x00, 0x00, 0x00, 0x00, 0x00, 0x00, 0x00, 0x00, 0x20,
   0xB0, 0x4F, 0x80, 0xC8, 0x48, 0x82, 0x1E, 0x00, 0x00, 0x00, 0x00, 0x00,
   0x00, 0x00, 0x00, 0x00, 0x00, 0x00, 0x00, 0x00, 0x00, 0x00, 0x00, 0x00,
   0x00, 0x00, 0x00, 0x00, 0x00, 0x00, 0xD0, 0x2F, 0xAA, 0xCC, 0x6C, 0xE9,
   0x29, 0x00, 0x00, 0x00, 0x00, 0x00, 0x00, 0x00, 0x00, 0x00, 0x00, 0x00,
   0x00, 0x00, 0x00, 0x00, 0x00, 0x00, 0x00, 0x00, 0x00, 0x00, 0x00, 0x00,
   0xA0, 0x24, 0x81, 0x49, 0x88, 0x60, 0x70, 0x00, 0x00, 0x00, 0x00, 0x00,
   0x00, 0x00, 0x00, 0x00, 0x00, 0x00, 0x00, 0x00, 0x00, 0x00, 0x00, 0x00,
   0x00, 0x00, 0x00, 0x00, 0x00, 0x00, 0xB0, 0xF8, 0xC0, 0x4D, 0xDA, 0x3C,
   0x30, 0x00, 0x00, 0x00, 0x00, 0x00, 0x00, 0x00, 0x00, 0x00, 0x00, 0x00,
   0x00, 0x00, 0x00, 0x00, 0x00, 0x00, 0x00, 0x00, 0x00, 0x00, 0x00, 0x00,
   0xD0, 0xE8, 0xA9, 0x08, 0x51, 0x3A, 0xE0, 0x00, 0x00, 0x00, 0x00, 0x00,
   0x00, 0x00, 0x00, 0x00, 0x00, 0x00, 0x00, 0x00, 0x00, 0x00, 0x00, 0x00,
   0x00, 0x00, 0x00, 0x00, 0x00, 0x00, 0x70, 0x28, 0x87, 0x4D, 0xD8, 0x2F,
   0x60, 0x00, 0x00, 0x00, 0x00, 0x00, 0x00, 0x00, 0x00, 0x00, 0x00, 0x00,
   0x00, 0x00, 0x00, 0x00, 0x00, 0x00, 0x00, 0x00, 0x00, 0x00, 0x00, 0x00,
   0x10, 0x18, 0xFE, 0x05, 0x59, 0x37, 0x40, 0x00, 0x00, 0x00, 0x00, 0x00,
   0x00, 0x00, 0x00, 0x00, 0x00, 0x00, 0x00, 0x00, 0x00, 0x00, 0x00, 0x00,
   0x00, 0x00, 0x00, 0x00, 0x00, 0x00, 0x30, 0x18, 0x7E, 0xAD, 0xAC, 0x55,
   0x00, 0x00, 0x00, 0x00, 0x00, 0x00, 0x00, 0x00, 0x00, 0x00, 0x00, 0x00,
   0x00, 0x00, 0x00, 0x00, 0x00, 0x00, 0x00, 0x00, 0x00, 0x00, 0x00, 0x00,
   0x10, 0x1C, 0xB6, 0xFF, 0xBF, 0x68, 0x00, 0x00, 0x00, 0x00, 0x00, 0x00,
   0x00, 0x00, 0x00, 0x00, 0x00, 0x00, 0x00, 0x00, 0x00, 0x00, 0x00, 0x00,
   0x00, 0x00, 0x00, 0x00, 0x00, 0x00, 0x30, 0x08, 0x32, 0x65, 0xA7, 0x38,
   0x00, 0x00, 0x00, 0x00, 0x00, 0x00, 0x00, 0x00, 0x00, 0x00, 0x00, 0x00,
   0x00, 0x00, 0x00, 0x00, 0x00, 0x00, 0x00, 0x00, 0x00, 0x00, 0x00, 0x00,
   0x10, 0x0C, 0x1C, 0xA6, 0xE3, 0x50, 0x00, 0x00, 0x00, 0x00, 0x00, 0x00,
   0x00, 0x00, 0x00, 0x00, 0x00, 0x00, 0x00, 0x00, 0x00, 0x00, 0x00, 0x00,
   0x00, 0x00, 0x00, 0x00, 0x00, 0x00, 0x10, 0x00, 0x16, 0x47, 0x42, 0x60,
   0x00, 0x00, 0x00, 0x00, 0x00, 0x00, 0x00, 0x00, 0x00, 0x00, 0x00, 0x00,
   0x00, 0x00, 0x00, 0x00, 0x00, 0x00, 0x00, 0x00, 0x00, 0x00, 0x00, 0x00,
   0x10, 0x00, 0x18, 0xC2, 0xE3, 0x60, 0x00, 0x00, 0x00, 0x00, 0x00, 0x00,
   0x00, 0x00, 0x00, 0x00, 0x00, 0x00, 0x00, 0x00, 0x00, 0x00, 0x00, 0x00,
   0x00, 0x00, 0x00, 0x00, 0x00, 0x00, 0x00, 0x00, 0x0C, 0x46, 0x82, 0xC0,
   0x00, 0x00, 0x00, 0x00, 0x00, 0x00, 0x00, 0x00, 0x00, 0x00, 0x00, 0x00,
   0x00, 0x00, 0x00, 0x00, 0x00, 0x00, 0x00, 0x00, 0x00, 0x00, 0x00, 0x00,
   0x00, 0x00, 0x0C, 0x86, 0xC1, 0x80, 0x00, 0x00, 0x00, 0x00, 0x00, 0x00,
   0x00, 0x00, 0x00, 0x00, 0x00, 0x00, 0x00, 0x00, 0x00, 0x00, 0x00, 0x00,
   0x00, 0x00, 0x00, 0x00, 0x00, 0x00, 0x00, 0x00, 0x0C, 0x82, 0xC2, 0x80,
   0x00, 0x00, 0x00, 0x00, 0x00, 0x00, 0x00, 0x00, 0x00, 0x00, 0x00, 0x00,
   0x00, 0x00, 0x00, 0x00, 0x00, 0x00, 0x00, 0x00, 0x00, 0x00, 0x00, 0x00,
   0x00, 0x00, 0x0C, 0x82, 0x81, 0x00, 0x00, 0x00, 0x00, 0x00, 0x00, 0x00,
   0x00, 0x00, 0x00, 0x00, 0x00, 0x00, 0x00, 0x00, 0x00, 0x00, 0x00, 0x00,
   0x00, 0x00, 0x00, 0x00, 0x00, 0x00, 0x00, 0x00, 0x04, 0x82, 0x01, 0x00,
   0x00, 0x00, 0x00, 0x00, 0x00, 0x00, 0x00, 0x00, 0x00, 0x00, 0x00, 0x00,
   0x00, 0x00, 0x00, 0x00, 0x00, 0x00, 0x00, 0x00, 0x00, 0x00, 0x00, 0x00,
   0x00, 0x00, 0x0C, 0x00, 0x01, 0x00, 0x00, 0x00, 0x00, 0x00, 0x00, 0x00,
   0x00, 0x00, 0x00, 0x00, 0x00, 0x00, 0x00, 0x00, 0x00, 0x00, 0x00, 0x00,
   0x00, 0x00, 0x00, 0x00, 0x00, 0x00, 0x00, 0x00, 0x04, 0x00, 0x01, 0x00,
   0x00, 0x00, 0x00, 0x00, 0x00, 0x00, 0x00, 0x00, 0x00, 0x00, 0x00, 0x00,
   0x00, 0x00, 0x00, 0x00, 0x00, 0x00, 0x00, 0x00, 0x00, 0x00, 0x00, 0x00,
   0x00, 0x00, 0x04, 0x00, 0x01, 0x00, 0x00, 0x00, 0x00, 0x00, 0x00, 0x00,
   0x00, 0x00, 0x00, 0x00, 0x00, 0x00, 0x00, 0x00, 0x00, 0x00, 0x00, 0x00,
   0x00, 0x00, 0x00, 0x00, 0x00, 0x00, 0x00, 0x00, 0x00, 0x00, 0x01, 0x00,
   0x00, 0x00, 0x00, 0x00, 0x00, 0x00, 0x00, 0x00, 0x00, 0x00, 0x00, 0x00,
   0x00, 0x00, 0x00, 0x00, 0x00, 0x00, 0x00, 0x00, 0x00, 0x00, 0x00, 0x00,
   0x00, 0x00, 0x00, 0x00, 0x01, 0x00, 0x00, 0x00, 0x00, 0x00, 0x00, 0x00,
   0x00, 0x00, 0x00, 0x00, 0x00, 0x00, 0x00, 0x00, 0x00, 0x00, 0x00, 0x00,
   0x00, 0x00, 0x00, 0x00, 0x00, 0x00, 0x00, 0x00, 0x00, 0x00, 0x00, 0x00,
   0x00, 0x00, 0x00, 0x00, 0x00, 0x00, 0x00, 0x00, 0x00, 0x00, 0x00, 0x00,
   0x00, 0x00, 0x00, 0x00, 0x00, 0x00, 0x00, 0x00, 0x00, 0x00, 0x00, 0x00,
   0x00, 0x00, 0x00, 0x00, 0x00, 0x00, 0x00, 0x00, 0x00, 0x00, 0x00, 0x00,
   0x00, 0x00, 0x00, 0x00, 0x00, 0x00, 0x00, 0x00, 0x00, 0x00, 0x00, 0x00,
   0x00, 0x00, 0x00, 0x00, 0x00, 0x00, 0x00, 0x00, 0x00, 0x00, 0x00, 0x00,
   0x00, 0x00, 0x00, 0x00, 0x00, 0x00, 0x00, 0x00, 0x00, 0x00, 0x00, 0x00,
   0x00, 0x00, 0x00, 0x00, 0x00, 0x00, 0x00, 0x00, 0x00, 0x00, 0x00, 0x00,
   0x00, 0x00, 0x00, 0x00, 0x00, 0x00, 0x00, 0x00, 0x00, 0x00, 0x00, 0x00,
   0x00, 0x00, 0x00, 0x00, 0x00, 0x00, 0x00, 0x00, 0x00, 0x00, 0x00, 0x00,
   0x00, 0x00, 0x00, 0x00, 0x00, 0x00, 0x00, 0x00, 0x00, 0x00, 0x00, 0x00,
   0x00, 0x00, 0x00, 0x00, 0x00, 0x00, 0x00, 0x00, 0x00, 0x00, 0x00, 0x00,
   0x00, 0x00, 0x00, 0x00, 0x00, 0x00, 0x00, 0x00, 0x00, 0x00, 0x00, 0x00,
   0x00, 0x00, 0x00, 0x00, 0x00, 0x00, 0x00, 0x00, 0x00, 0x00, 0x00, 0x00,
   0x00, 0x00, 0x00, 0x00, 0x00, 0x00, 0x00, 0x00, 0x00, 0x00, 0x00, 0x00,
   0x00, 0x00, 0x00, 0x00, 0x00, 0x00, 0x00, 0x00, 0x00, 0x00, 0x00, 0x00,
   0x00, 0x00, 0x00, 0x00, 0x00, 0x00, 0x00, 0x00, 0x00, 0x00, 0x00, 0x00,
   0x00, 0x00, 0x00, 0x40, 0x2B, 0x00, 0x00, 0x00, 0x00, 0x00, 0x00, 0x00,
   0x00, 0x00, 0x00, 0x00, 0x20, 0x49, 0x00, 0x00, 0x00, 0xF4, 0x0F, 0x3F,
   0x00, 0x00, 0x00, 0x00, 0x00, 0x00, 0x00, 0x00, 0x00, 0xF8, 0x7F, 0x00,
   0x00, 0x00, 0x00, 0x00, 0x00, 0x00, 0x00, 0x00, 0x00, 0xE0, 0xFF, 0xFF,
   0x3F, 0x00, 0x00, 0xFF, 0xFF, 0xFD, 0xFF, 0xFF, 0x1F, 0x00, 0x00, 0x00,
   0x00, 0x00, 0x00, 0xFE, 0xBD, 0x03, 0x00, 0x00, 0x00, 0x00, 0x00, 0x00,
   0x00, 0x00, 0x00, 0xF0, 0xFF, 0xFD, 0xFF, 0x03, 0x80, 0xBB, 0x6B, 0xDF,
   0xFF, 0xFF, 0xFF, 0x01, 0x00, 0x00, 0x00, 0x00, 0x80, 0xAF, 0xEE, 0x07,
   0x00, 0x00, 0x00, 0x00, 0x00, 0x00, 0x00, 0x00, 0x00, 0x78, 0xB7, 0xAE,
   0xB6, 0x0B, 0xE0, 0xDD, 0xFD, 0xEF, 0xDE, 0x7B, 0xD7, 0x07, 0x00, 0x00,
   0x00, 0x00, 0xC0, 0xFB, 0xFF, 0x1B, 0x00, 0x00, 0x00, 0x00, 0x00, 0x00,
   0x00, 0x00, 0x00, 0xE8, 0xFB, 0xFF, 0xFB, 0x0D, 0xB0, 0xFF, 0x7F, 0xFB,
   0xF7, 0xDE, 0xFB, 0x1D, 0x00, 0x00, 0x00, 0x00, 0xE0, 0x5E, 0x64, 0x1D,
   0x00, 0x00, 0x00, 0x00, 0x00, 0x00, 0x00, 0x00, 0x00, 0x78, 0xBF, 0xF7,
   0xBF, 0x3F, 0xF0, 0x97, 0xB4, 0xDB, 0xDE, 0x7B, 0xFF, 0x2E, 0x00, 0x00,
   0x00, 0x00, 0xF8, 0x07, 0x82, 0x3F, 0x00, 0x00, 0x00, 0x00, 0x00, 0x00,
   0x00, 0x00, 0x00, 0xB8, 0xD2, 0x18, 0xE8, 0x3D, 0xB8, 0x69, 0xDB, 0x6D,
   0x63, 0x4A, 0xA9, 0x7F, 0x00, 0x00, 0x00, 0x00, 0xEC, 0xA2, 0x51, 0x5E,
   0x00, 0x00, 0x00, 0x00, 0x00, 0x00, 0x00, 0x00, 0x00, 0xD8, 0x2D, 0xD7,
   0x57, 0xEF, 0xFC, 0xB6, 0xA5, 0x7A, 0xBD, 0x6D, 0xD7, 0xF6, 0x00, 0x00,
   0x00, 0x00, 0x74, 0xD1, 0x0E, 0xF4, 0x00, 0x00, 0x00, 0x00, 0x00, 0x00,
   0x00, 0x00, 0x00, 0xF8, 0xD2, 0xF4, 0xAD, 0x7C, 0x5C, 0xF9, 0xDF, 0xEE,
   0x43, 0xF2, 0xB9, 0xBE, 0x01, 0x00, 0x00, 0x00, 0x3E, 0x70, 0x3F, 0xF9,
   0x00, 0x00, 0x00, 0x00, 0x00, 0x00, 0x00, 0x00, 0x00, 0xD8, 0x5F, 0xDB,
   0x76, 0xB7, 0x6F, 0xBD, 0x6F, 0x75, 0x7D, 0xBF, 0x4E, 0xDB, 0x03, 0x00,
   0x00, 0x00, 0x5F, 0xD9, 0x9F, 0xB4, 0x00, 0x00, 0x00, 0x00, 0x00, 0x00,
   0x00, 0x00, 0x00, 0xF8, 0x66, 0xED, 0x8F, 0xDA, 0xBD, 0xDE, 0xB5, 0xFA,
   0xA7, 0xF1, 0xBF, 0xE5, 0x05, 0x00, 0x00, 0x80, 0x0F, 0xFC, 0x77, 0xF0,
   0x01, 0x00, 0x00, 0x00, 0x00, 0x00, 0x00, 0x00, 0x00, 0xD0, 0xBF, 0xF6,
   0x76, 0xEB, 0x4F, 0xEF, 0x7F, 0xBB, 0x5B, 0xBE, 0x6F, 0xF5, 0x06, 0x00,
   0x00, 0xC0, 0xA7, 0x6C, 0x3D, 0xA2, 0x01, 0x00, 0x00, 0x00, 0x00, 0x00,
   0x00, 0x00, 0x00, 0xE0, 0x46, 0x7B, 0xDF, 0xEA, 0x6D, 0xF5, 0xFD, 0xDC,
   0xAE, 0xF5, 0xB5, 0x5A, 0x0F, 0x00, 0x00, 0xC0, 0x02, 0xFE, 0x5D, 0xE9,
   0x03, 0x00, 0x00, 0x00, 0x00, 0x00, 0x00, 0x00, 0x00, 0xA0, 0xB7, 0xD5,
   0x37, 0xF5, 0xAE, 0x3F, 0xAC, 0xF6, 0xD7, 0xBA, 0xFF, 0xA6, 0x0F, 0x00,
   0x00, 0xE0, 0x53, 0x2E, 0x68, 0xC0, 0x02, 0x00, 0x00, 0x00, 0x00, 0x00,
   0x00, 0x00, 0x00, 0x00, 0xDB, 0xEA, 0xDA, 0x56, 0x77, 0x1E, 0xF8, 0xBB,
   0xAB, 0xF6, 0x7C, 0xDB, 0x17, 0x00, 0x00, 0xE0, 0x08, 0x37, 0x70, 0xD2,
   0x03, 0x08, 0x04, 0x00, 0x00, 0x02, 0x00, 0x00, 0x80, 0x00, 0xAF, 0xFA,
   0x3C, 0xEB, 0xAF, 0x2B, 0xF0, 0xEC, 0x6D, 0xB9, 0xA8, 0x65, 0x1A, 0x00,
   0x00, 0xF0, 0x82, 0x1F, 0x78, 0x49, 0x43, 0xBF, 0x3F, 0x00, 0xE0, 0x3F,
   0x00, 0xF8, 0xF1, 0x07, 0xAB, 0x6A, 0xDE, 0xB5, 0xAB, 0xFE, 0x60, 0xFB,
   0x96, 0xDE, 0xF0, 0xB5, 0x3F, 0x00, 0x00, 0x78, 0x50, 0x15, 0x38, 0x80,
   0xFF, 0xEF, 0xFF, 0x00, 0xB8, 0x7F, 0xE8, 0xDF, 0xFF, 0x1F, 0x6F, 0xF5,
   0x5D, 0xCA, 0x6D, 0xFD, 0xE2, 0xB7, 0xEF, 0xEA, 0xF0, 0x5A, 0x1C, 0x00,
   0x00, 0xB8, 0x8A, 0x0F, 0x68, 0xC9, 0xFB, 0xF5, 0xD6, 0x00, 0xFC, 0xD5,
   0xBD, 0xFE, 0x7D, 0x1D, 0x57, 0xFB, 0xAC, 0xF5, 0xB7, 0x56, 0x63, 0xF9,
   0x2B, 0x7B, 0x60, 0xAB, 0x6F, 0x00, 0x00, 0x6C, 0xC0, 0x06, 0x38, 0x84,
   0x5D, 0x7F, 0xFF, 0x03, 0xDE, 0xFF, 0xDF, 0xEF, 0xAE, 0x2F, 0xAF, 0xBA,
   0xBE, 0xDA, 0x4E, 0xF9, 0x9F, 0xDF, 0xD6, 0xED, 0xE0, 0xAD, 0x34, 0x00,
   0x00, 0x34, 0xA4, 0x07, 0x68, 0xA1, 0xFF, 0xBB, 0x6B, 0x83, 0x6F, 0xFA,
   0xEE, 0xB7, 0xFF, 0x3E, 0xD7, 0xEA, 0xAE, 0xED, 0xB3, 0xEE, 0xDF, 0xEF,
   0x5B, 0x72, 0x40, 0x6B, 0x7F, 0x00, 0x00, 0x3C, 0xD2, 0x03, 0x38, 0x88,
   0xAF, 0xD8, 0xE0, 0xC3, 0x3E, 0xA1, 0xFB, 0xC9, 0x07, 0x6A, 0x57, 0xFB,
   0x5B, 0xB5, 0xDE, 0x52, 0xF5, 0xFB, 0xAE, 0xFD, 0xE0, 0xAB, 0x7A, 0x00,
   0x00, 0x1E, 0xC1, 0x02, 0x78, 0xC5, 0x01, 0x3C, 0x50, 0x47, 0x87, 0xD0,
   0x2D, 0xE4, 0x12, 0x78, 0xB7, 0x6C, 0xAD, 0xEA, 0x57, 0xDB, 0xFF, 0x7D,
   0xD7, 0x76, 0xC0, 0xAD, 0x5A, 0x00, 0x00, 0x8E, 0xE8, 0x03, 0x38, 0xA0,
   0x50, 0x15, 0x8A, 0xE3, 0x93, 0x8B, 0x06, 0x41, 0x83, 0x7A, 0xCF, 0xF7,
   0xDF, 0xFD, 0xAF, 0x6C, 0x5A, 0xDF, 0x57, 0xB9, 0x40, 0x73, 0x7B, 0x00,
   0x00, 0x56, 0x64, 0x01, 0x1C, 0x92, 0x05, 0x8C, 0x80, 0xFF, 0xC9, 0x82,
   0x5F, 0xE8, 0x51, 0xB8, 0x6B, 0xB8, 0x6D, 0xB6, 0xDA, 0x96, 0xFD, 0x3B,
   0xAB, 0xDE, 0xC0, 0x9D, 0xDA, 0x00, 0x00, 0x0F, 0xE0, 0x01, 0xBC, 0x88,
   0xAF, 0x44, 0x52, 0xFD, 0xC4, 0x57, 0x3F, 0xE2, 0x0C, 0xEA, 0xAF, 0xD7,
   0x97, 0xFB, 0xAF, 0x6A, 0xAA, 0x9D, 0xB7, 0xF5, 0x80, 0x67, 0x7D, 0x00,
   0x00, 0x27, 0x75, 0x01, 0x14, 0xC2, 0x05, 0xF2, 0x09, 0x6F, 0xE0, 0x83,
   0x57, 0x31, 0x96, 0xF0, 0x6A, 0xFA, 0xD4, 0xBE, 0x5E, 0xD7, 0xEB, 0x9F,
   0xDB, 0x5A, 0xC0, 0xB5, 0xD6, 0x00, 0x00, 0x8B, 0xF0, 0x01, 0xBC, 0xD0,
   0x2E, 0xD9, 0x81, 0x37, 0xEA, 0x22, 0x3B, 0x68, 0x1B, 0x7C, 0xAF, 0x45,
   0xEB, 0xDF, 0xF6, 0x68, 0x94, 0xAE, 0x56, 0xED, 0x80, 0x5B, 0x7B, 0x00,
   0x80, 0x27, 0x54, 0x00, 0x1C, 0x44, 0x87, 0xF8, 0x48, 0xBA, 0xF0, 0x93,
   0xBF, 0x24, 0x4F, 0xB1, 0xB7, 0x7A, 0x35, 0xF5, 0x3A, 0xB7, 0x7B, 0xB7,
   0x57, 0xF5, 0xC0, 0xAD, 0xEA, 0x00, 0x00, 0x15, 0xF1, 0x01, 0x0E, 0xD1,
   0x17, 0xDC, 0x23, 0x1F, 0x7A, 0x89, 0x1B, 0xB2, 0x2F, 0x7C, 0x5B, 0xED,
   0xAD, 0x7D, 0xFD, 0x59, 0x8C, 0xFA, 0xB6, 0x7A, 0x80, 0x57, 0x75, 0x00,
   0x80, 0x87, 0xF8, 0x00, 0x5E, 0xC4, 0x43, 0xEE, 0x08, 0x5F, 0xA9, 0xC3,
   0xBD, 0x90, 0x0B, 0xBA, 0xAF, 0x76, 0xD7, 0xB6, 0xBB, 0xAE, 0x77, 0x7B,
   0x57, 0xFB, 0xC0, 0xAA, 0xFB, 0x00, 0x80, 0x43, 0xB4, 0x00, 0x16, 0xE1,
   0x16, 0xF5, 0x85, 0x0B, 0xF8, 0xA9, 0x1F, 0xD8, 0x8F, 0x58, 0xAB, 0xF5,
   0x2F, 0xD9, 0xDB, 0x53, 0x89, 0xBD, 0xD7, 0x5A, 0x80, 0x57, 0xBD, 0x00,
   0x80, 0x15, 0x78, 0x00, 0x8E, 0xE8, 0x83, 0xFE, 0x20, 0x4D, 0xFA, 0xC0,
   0x1D, 0xC5, 0x45, 0x7E, 0xAF, 0xBA, 0xF5, 0xEE, 0xFF, 0xAF, 0xF6, 0xDA,
   0x6B, 0xED, 0xC0, 0xAB, 0xD2, 0x00, 0x80, 0x43, 0xBA, 0x00, 0x57, 0x64,
   0x4B, 0xBA, 0x85, 0x27, 0x59, 0xEA, 0x8F, 0xF0, 0x27, 0x18, 0x6B, 0xD5,
   0x3F, 0xD3, 0xFA, 0x7E, 0x2B, 0xF5, 0xB7, 0x7A, 0x80, 0xD5, 0x7D, 0x00,
   0x80, 0x2B, 0x59, 0x00, 0x0F, 0xF0, 0x21, 0xDE, 0x50, 0x15, 0x7C, 0xF0,
   0x5D, 0xE8, 0x16, 0x3D, 0xAF, 0xFE, 0xDD, 0x5A, 0x5F, 0x57, 0xD5, 0xDA,
   0xAD, 0xF6, 0xC0, 0x6B, 0xFA, 0x00, 0xC0, 0x01, 0x7C, 0x00, 0x03, 0x55,
   0x0B, 0xEF, 0x09, 0x07, 0x1D, 0xFD, 0x0E, 0xB2, 0x03, 0x9C, 0xB7, 0xE5,
   0x6E, 0xAD, 0xEF, 0xFF, 0x35, 0xF7, 0x56, 0xB9, 0xC0, 0x5A, 0x5B, 0x00,
   0x80, 0x97, 0x58, 0x80, 0xAF, 0xF0, 0x43, 0xF7, 0x84, 0x53, 0x4C, 0xAC,
   0x4F, 0xD8, 0x4B, 0x3F, 0x4B, 0x7A, 0xB8, 0xD2, 0xFB, 0xEB, 0xD6, 0x69,
   0xB7, 0xDD, 0x40, 0x57, 0x7D, 0x00, 0xC0, 0x41, 0x3C, 0x80, 0x02, 0xFC,
   0x11, 0xFB, 0xC0, 0x0B, 0x05, 0xFF, 0x26, 0xF5, 0x01, 0x0E, 0x7F, 0xB7,
   0x7D, 0x5B, 0xED, 0x7C, 0xAF, 0xF6, 0x57, 0xF5, 0xC0, 0xAB, 0x5D, 0x00,
   0x80, 0x13, 0x5E, 0x80, 0xA7, 0xB2, 0x8A, 0x7F, 0xA4, 0x85, 0xE0, 0x6F,
   0x0F, 0xF8, 0xAA, 0x3A, 0x8B, 0xD9, 0xA8, 0xAD, 0x77, 0xF9, 0x5F, 0x69,
   0x5B, 0x7D, 0xC0, 0xD5, 0x6E, 0x00, 0xC0, 0x09, 0x29, 0xC0, 0x13, 0xF8,
   0x41, 0xBB, 0xD0, 0x23, 0xFC, 0x3B, 0xA7, 0xAC, 0x03, 0x1E, 0xEF, 0xF6,
   0x78, 0xD2, 0xF6, 0xA1, 0xEB, 0xF6, 0xD7, 0xB6, 0xE0, 0x5A, 0x35, 0x00,
   0x80, 0x43, 0x3C, 0xC0, 0x01, 0xBD, 0x89, 0x5F, 0x4A, 0x11, 0x6F, 0xFD,
   0x0B, 0xFA, 0x91, 0xFF, 0x37, 0xF9, 0xB8, 0x6D, 0x5B, 0xC1, 0x3D, 0xB5,
   0x2D, 0xDB, 0xC0, 0x67, 0x3F, 0x00, 0xC0, 0x15, 0x3D, 0xE0, 0x4A, 0xFE,
   0xC4, 0x7B, 0xE0, 0x8B, 0xFA, 0xDF, 0x45, 0xFC, 0x48, 0x6F, 0xCB, 0xAE,
   0xD8, 0xB6, 0xE7, 0x01, 0xFF, 0xDA, 0xD7, 0xF5, 0xE0, 0xB8, 0x3A, 0x00,
   0x80, 0x86, 0x2C, 0x60, 0x21, 0xAF, 0xA1, 0x3E, 0xA5, 0x01, 0xBE, 0xEE,
   0x16, 0xAD, 0x05, 0xF5, 0xBF, 0xF2, 0x78, 0x49, 0xFD, 0x03, 0x2C, 0xF7,
   0x55, 0x7A, 0xF0, 0x57, 0x1F, 0x00, 0x80, 0x23, 0x3C, 0xF0, 0x09, 0xFB,
   0x88, 0x2F, 0xF0, 0x53, 0xEF, 0xF3, 0x47, 0xFC, 0xA0, 0xBF, 0x45, 0xFB,
   0xBC, 0xEE, 0xA7, 0x06, 0xF8, 0xEA, 0x6E, 0xDB, 0x70, 0xA8, 0x0F, 0x00,
   0x80, 0x17, 0x3D, 0x78, 0xC4, 0xDF, 0xC4, 0x37, 0xF9, 0x02, 0xFA, 0x73,
   0x23, 0xDE, 0x8A, 0xE3, 0xFF, 0xBA, 0x5C, 0xB3, 0xD6, 0x07, 0xB8, 0x7A,
   0x97, 0x6D, 0xBC, 0xDF, 0x1A, 0x00, 0x80, 0x8D, 0x2C, 0x5C, 0xA1, 0xED,
   0xE0, 0x1B, 0x54, 0x93, 0x5E, 0xD9, 0x13, 0xEF, 0xC0, 0xFA, 0x26, 0xED,
   0x77, 0xAD, 0xFB, 0x0F, 0x7C, 0xD5, 0xD7, 0xF2, 0xDF, 0x62, 0x0F, 0x00,
   0x00, 0x47, 0x7C, 0x77, 0xC8, 0x76, 0xCA, 0x9E, 0xFA, 0x43, 0xEE, 0xE9,
   0x09, 0xFA, 0xA4, 0x73, 0xB7, 0x75, 0x9F, 0xD5, 0x87, 0x7A, 0xAF, 0xFE,
   0x6B, 0xFD, 0x77, 0xBD, 0x0F, 0x00, 0x00, 0x1F, 0xB4, 0x3B, 0xE2, 0x7F,
   0x61, 0x0F, 0xDC, 0x13, 0xF4, 0xFC, 0x42, 0x7F, 0x92, 0xB8, 0x5F, 0xB5,
   0x7B, 0xF5, 0x7D, 0xFF, 0xBB, 0x6A, 0xAD, 0x7A, 0xBD, 0xE6, 0x07, 0x00,
   0x00, 0x9B, 0xDA, 0x1F, 0xF9, 0xB3, 0xD0, 0x47, 0xF7, 0x8A, 0x3A, 0x74,
   0x2B, 0xDF, 0x80, 0xFE, 0xA3, 0xFE, 0x8F, 0xDA, 0xA6, 0xAF, 0x5D, 0xFF,
   0x57, 0xAB, 0xAF, 0xF5, 0x05, 0x00, 0x00, 0x5E, 0xF0, 0x8D, 0xFC, 0x58,
   0xC4, 0x23, 0xBD, 0x47, 0x80, 0xBE, 0x01, 0xEB, 0x54, 0xDA, 0xDD, 0xA2,
   0xEB, 0xFD, 0x57, 0xF5, 0xAF, 0xB5, 0xB5, 0xF5, 0x57, 0x7E, 0x03, 0x00,
   0x00, 0x76, 0xE8, 0x47, 0x56, 0x79, 0xA2, 0x88, 0x9F, 0x2F, 0x54, 0xDE,
   0xA5, 0x7D, 0x02, 0x7F, 0x35, 0xDB, 0xAA, 0x6E, 0xBB, 0xFA, 0xB6, 0xFE,
   0xCA, 0x5A, 0xA9, 0xB7, 0x01, 0x00, 0x00, 0xBC, 0x82, 0x20, 0xFF, 0x38,
   0x11, 0xE2, 0x16, 0x15, 0x01, 0xF7, 0x11, 0xEF, 0xA1, 0xAA, 0xCE, 0x6D,
   0xF5, 0xF6, 0xD7, 0xAA, 0xAB, 0x5F, 0x6D, 0x55, 0xF5, 0xFB, 0x00, 0x00,
   0x00, 0xF4, 0x29, 0xA8, 0x37, 0x58, 0x48, 0xA9, 0x0F, 0x7F, 0xE8, 0xFF,
   0xCA, 0xE7, 0xC9, 0xFF, 0x73, 0xB5, 0x5F, 0x7F, 0x7B, 0x57, 0xF4, 0x77,
   0xB7, 0xEE, 0xBF, 0x3D, 0x00, 0x00, 0x80, 0xBA, 0x8F, 0xF6, 0x7B, 0x3C,
   0xE2, 0xFE, 0xEB, 0xBF, 0xF7, 0x57, 0xFF, 0x7A, 0x7F, 0xFF, 0xFE, 0xFF,
   0xEA, 0xBF, 0xD7, 0xFB, 0xDF, 0xBE, 0xFB, 0x77, 0xDD, 0xFF, 0x2A, 0x00,
   0xE0, 0xFF, 0xFF, 0xFF, 0xBF, 0x9C, 0xF0, 0xEB, 0x7D, 0xED, 0xBB, 0xFA,
   0xFF, 0xFF, 0xED, 0x55, 0xBF, 0x5D, 0xFF, 0xD7, 0xFB, 0x5F, 0xEB, 0xF7,
   0xFF, 0xFF, 0xEF, 0x5D, 0x3F, 0x00, 0xF0, 0xDF, 0xEA, 0xBB, 0xDA, 0x35,
   0x7A, 0x7D, 0xFF, 0xFF, 0xFD, 0xFF, 0x6B, 0xAF, 0x7F, 0xFF, 0xD7, 0xEF,
   0x7F, 0xFD, 0x7F, 0xED, 0xFF, 0xDE, 0x5D, 0xB5, 0xF7, 0xEF, 0xFF, 0x00,
   0xF0, 0xEA, 0x7F, 0xDD, 0xFF, 0x9F, 0xD0, 0xFF, 0x5B, 0xB7, 0xBE, 0xBF,
   0xFE, 0xF5, 0xED, 0xDF, 0xFB, 0xFD, 0xD7, 0xEF, 0xAD, 0xF7, 0x7D, 0xF7,
   0xEE, 0xFF, 0xFD, 0xF6, 0xD7, 0x01, 0x78, 0xFF, 0xBE, 0xFF, 0xDF, 0x5D,
   0xF4, 0x5F, 0xFF, 0xFB, 0xDF, 0xD5, 0xBF, 0xFE, 0x7E, 0xEB, 0xFE, 0x6E,
   0xFB, 0x77, 0xF7, 0xFF, 0xAE, 0x7F, 0xFF, 0xDF, 0xBE, 0xFB, 0xFA, 0x00,
   0xB8, 0xB7, 0xEB, 0xAF, 0xEA, 0x2E, 0x72, 0xF5, 0xD5, 0x5E, 0xEB, 0xFF,
   0xD5, 0x6F, 0xD7, 0x7D, 0x5B, 0xB7, 0xBD, 0xBA, 0xFD, 0xB5, 0xF7, 0xAB,
   0x57, 0x75, 0xD7, 0xBD, 0xFF, 0x03, 0x68, 0x59, 0x14, 0xD1, 0xF5, 0x1F,
   0xB8, 0x15, 0x6D, 0xA5, 0x5A, 0x48, 0x56, 0xB1, 0x5A, 0xA6, 0xAD, 0xD5,
   0x46, 0xAD, 0x26, 0x5A, 0x9A, 0xD4, 0x6A, 0x95, 0x55, 0x56, 0xA8, 0x02,
   0xB8, 0xA6, 0xEF, 0x6E, 0xAA, 0x0E, 0xF5, 0xEA, 0x32, 0x75, 0x55, 0xB7,
   0xA9, 0x4E, 0x65, 0x5B, 0xAA, 0x5A, 0x75, 0xD3, 0xD5, 0xA5, 0x65, 0x5B,
   0x95, 0x6D, 0x6A, 0xAB, 0xF7, 0x03, 0xF8, 0xFB, 0xB2, 0xB3, 0xFF, 0x57,
   0xF8, 0xBF, 0xDF, 0x9F, 0xDF, 0xDB, 0xFE, 0xFB, 0xBF, 0xF5, 0xEF, 0xED,
   0xB7, 0x7D, 0x76, 0xFF, 0xBE, 0xED, 0xF6, 0xB6, 0xBF, 0xDD, 0xFA, 0x03,
   0xA8, 0xBE, 0xFF, 0xFD, 0xD5, 0x0E, 0xBD, 0xEA, 0xFA, 0xEA, 0xEB, 0xFD,
   0xAF, 0x6D, 0xF5, 0x5F, 0x7B, 0x7F, 0xFD, 0xDF, 0xFF, 0xB5, 0xF7, 0x7F,
   0xFF, 0xFF, 0xEB, 0xEF, 0xBF, 0x02, 0xF0, 0xEF, 0xBD, 0x7F, 0xFF, 0x47,
   0xE8, 0x7F, 0xDF, 0xFF, 0xFD, 0xDE, 0xF6, 0xFF, 0xBF, 0xFD, 0xBF, 0xB7,
   0xBF, 0xED, 0xB7, 0xFE, 0xBB, 0xED, 0xB7, 0x56, 0xFD, 0xF6, 0xDD, 0x03,
   0xF0, 0xFB, 0xEE, 0xAD, 0x7F, 0x25, 0xF2, 0xBF, 0xEF, 0xFE, 0xFE, 0xFF,
   0xFB, 0x76, 0xDF, 0xEF, 0xED, 0xFB, 0xD7, 0xFF, 0xFA, 0xDF, 0xFE, 0x7F,
   0xFB, 0xFF, 0x7F, 0xFF, 0xEE, 0x01, 0x60, 0xBD, 0xFF, 0xFE, 0xAB, 0x11,
   0x81, 0xEA, 0xF7, 0x57, 0x5F, 0xD7, 0x7E, 0xBF, 0xEB, 0x7D, 0xF7, 0xBD,
   0xFD, 0x6D, 0xBF, 0xF7, 0xDF, 0xB6, 0xBF, 0xFB, 0xDF, 0x77, 0xFF, 0x01,
   0xE0, 0xDF, 0xB7, 0xEF, 0xFD, 0x45, 0xD4, 0xFF, 0xFD, 0xFE, 0xEF, 0xFB,
   0xBF, 0xF7, 0xFF, 0xEF, 0x7B, 0xDF, 0xFF, 0xFE, 0xDF, 0x7D, 0xEB, 0xFB,
   0xFB, 0x5D, 0xF5, 0xBE, 0xEF, 0x00, 0x80, 0xED, 0xFD, 0x77, 0xFF, 0xFF,
   0xFF, 0x6D, 0xBF, 0xF7, 0xF7, 0xFD, 0xD6, 0xBF, 0xED, 0x76, 0xFD, 0xFD,
   0xAD, 0x6F, 0xEB, 0xDF, 0xFF, 0xBE, 0xDD, 0xFE, 0x7F, 0xF7, 0x77, 0x00,
   0x00, 0x00, 0x00, 0x00, 0x40, 0xF5, 0xFF, 0x06, 0x00, 0x00, 0x00, 0x00,
   0x00, 0x00, 0x00, 0x00, 0x00, 0x00, 0x00, 0x00, 0x00, 0x00, 0x00, 0x00,
   0x00, 0x00, 0x00, 0x00, 0x00, 0x00, 0x00, 0x00, 0x00, 0x00, 0xE0, 0x7F,
   0x55, 0x03, 0x00, 0x00, 0x00, 0x00, 0x00, 0x00, 0x00, 0x00, 0x00, 0x00,
   0x00, 0x00, 0x00, 0x00, 0x00, 0x00, 0x00, 0x00, 0x00, 0x00, 0x00, 0x00,
   0x00, 0x00, 0x00, 0x00, 0xC0, 0xBF, 0xFF, 0x03, 0x00, 0x00, 0x00, 0x00,
   0x00, 0x00, 0x00, 0x00, 0x00, 0x00, 0x00, 0x00, 0x00, 0x00, 0x00, 0x00,
   0x00, 0x00, 0x00, 0x00, 0x00, 0x00, 0x00, 0x00, 0x00, 0x00, 0x40, 0xD5,
   0xFF, 0x01, 0x00, 0x00, 0x00, 0x00, 0x00, 0x00, 0x00, 0x00, 0x00, 0x00,
   0x00, 0x00, 0x00, 0x00, 0x00, 0x00, 0x00, 0x00, 0x00, 0x00, 0x00, 0x00,
   0x00, 0x00, 0x00, 0x00, 0x00, 0xFF, 0x2A, 0x00, 0x00, 0x00, 0x00, 0x00,
   0x00, 0x00, 0x00, 0x00, 0x00, 0x00, 0x00, 0x00, 0x00, 0x00, 0x00, 0x00,
   0x00, 0x00, 0x00, 0x00, 0x00, 0x00, 0x00, 0x00, 0x00, 0x00, 0x00, 0x00,
   0x00, 0x00, 0x00, 0x00, 0x00, 0x00, 0x00, 0x00, 0x00, 0x00, 0x00, 0x00,
   0x00, 0x00, 0x00, 0x00, 0x00, 0x00, 0x00, 0x00, 0x00, 0x00, 0x00, 0x00,
   0x00, 0x00, 0x00, 0x00, 0x00, 0x00, 0x00, 0x00, 0x00, 0x00, 0x00, 0x00,
   0x00, 0x00, 0x00, 0x00, 0x00, 0x00, 0x00, 0x00, 0x00, 0x00, 0x00, 0x00,
   0x00, 0x00, 0x00, 0x00, 0x00, 0x00, 0x00, 0x00, 0x00, 0x00, 0x00, 0x00,
   0x00, 0x00, 0x00, 0x00, 0x00, 0x00, 0x00, 0x00, 0x00, 0x00, 0x00, 0x00,
   0x00, 0x00, 0x00, 0x00, 0x00, 0x00, 0x00, 0x00, 0x00, 0x00, 0x00, 0x00,
   0x00, 0x00, 0x00, 0x00, 0x00, 0x00, 0x00, 0x00, 0x00, 0x00, 0x00, 0x00,
   0x00, 0x00, 0x00, 0x00, 0x00, 0x00, 0x00, 0x00, 0x00, 0x00, 0x00, 0x00,
   0x00, 0x00, 0x00, 0x00, 0x00, 0x00 };
